<svg fill="none" height="24" viewBox="0 0 24 24" width="24" xmlns="http://www.w3.org/2000/svg"><g fill="rgb(0,0,0)"><path d="m8 12c.55228 0 1 .4477 1 1v4c0 .5523-.44772 1-1 1s-1-.4477-1-1v-4c0-.5523.44772-1 1-1z"/><path d="m13 13c0-.5523-.4477-1-1-1s-1 .4477-1 1v4c0 .5523.4477 1 1 1s1-.4477 1-1z"/><path d="m16 12c.5523 0 1 .4477 1 1v4c0 .5523-.4477 1-1 1s-1-.4477-1-1v-4c0-.5523.4477-1 1-1z"/><path clip-rule="evenodd" d="m4.06474 8.09495c.51233-3.54287 3.99534-6.09495 7.93526-6.09495 3.9399 0 7.4229 2.55208 7.9353 6.09495.008.00112.0161.00224.0241.00338.7373.10465 1.4434.34241 1.9687.96255.5254.62014.6438 1.35572.6258 2.10012-.0169.7003-.1618 1.5696-.3319 2.5897l-.6882 4.1295c-.1247.7484-.2332 1.3993-.3876 1.9178-.1663.5588-.4174 1.0811-.9013 1.4911-.484.4099-1.0405.5717-1.6189.644-.5369.067-1.1968.067-1.9554.0669h-9.3411c-.75864.0001-1.41855.0001-1.95545-.0669-.57849-.0723-1.13495-.2341-1.61892-.644-.48397-.41-.73503-.9323-.90138-1.4911-.15439-.5185-.26283-1.1694-.38751-1.9178l-.68826-4.1295c-.17006-1.0201-.315-1.8894-.33192-2.5897-.01798-.7444.10046-1.47998.6258-2.10012s1.23142-.8579 1.96869-.96255c.00804-.00114.0161-.00226.02419-.00338zm2.05878-.09446c.54725-2.19751 2.8601-4.00049 5.87648-4.00049 3.0164 0 5.3292 1.80298 5.8765 4.00049-.1706-.00051-.346-.0005-.526-.00049h-10.70097c-.18003-.00001-.35543-.00002-.52601.00049zm-1.80191 2.07801c-.50846.0722-.64992.188-.72371.2751s-.16482.2457-.15242.7591c.01308.5414.13198 1.2693.31718 2.3805l.66667 4c.13725.8235.22676 1.3495.34128 1.7342.10655.3579.20175.4716.27727.5356s.2034.1392.57395.1855c.39825.0497.93183.0515 1.76668.0515h9.22299c.8348 0 1.3684-.0018 1.7667-.0515.3705-.0463.4984-.1215.5739-.1855s.1707-.1777.2773-.5356c.1145-.3847.204-.9107.3413-1.7342l.6666-4c.1852-1.1112.3041-1.8391.3172-2.3805.0124-.5134-.0786-.672-.1524-.7591s-.2152-.2029-.7237-.2751c-.5361-.0761-1.2737-.0785-2.4002-.0785h-10.55636c-1.1265 0-1.8641.0024-2.40023.0785z" fill-rule="evenodd"/></g></svg>